<svg width="17" height="15" viewBox="0 0 17 15" fill="none" xmlns="http://www.w3.org/2000/svg">
<path d="M15.6642 10.2257L10.6126 1.47615C9.47377 -0.496418 6.58277 -0.487676 5.44896 1.47615L0.397361 10.2257C-0.738521 12.1931 0.700654 14.6445 2.94303 14.6445C3.95033 14.6445 4.94563 14.128 5.49828 13.1707L8.03076 8.78435L10.5632 13.1707C11.115 14.1265 12.1096 14.6445 13.1185 14.6445C15.3593 14.6445 16.8006 12.1942 15.6642 10.2257ZM4.6043 12.6546C4.15843 13.4269 3.252 13.7766 2.41738 13.5366C1.21882 13.1884 0.674202 11.8107 1.2913 10.7418C1.81983 9.82639 2.98848 9.51306 3.90417 10.0417C4.81969 10.5703 5.13295 11.739 4.6043 12.6546ZM5.72354 10.7161C5.2427 9.35042 3.8353 8.5366 2.41057 8.80335L5.26263 3.86346C5.3897 4.25198 5.30044 4.05527 7.43481 7.75211L5.72354 10.7161ZM14.0701 13.3547C13.1547 13.8833 11.9858 13.5702 11.4572 12.6546L6.40564 3.90501C5.4417 2.23541 7.29994 0.336041 8.9558 1.29215C9.57542 1.64989 9.40493 1.44896 14.7702 10.7418C15.2975 11.6552 14.9835 12.8274 14.0701 13.3547Z" fill="#5E6A7A"/>
</svg>
