<svg width="17" height="17" viewBox="0 0 17 17" fill="none" xmlns="http://www.w3.org/2000/svg">
<path d="M0.601562 8.93294H15.6016M0.601562 8.93294C0.601562 11.4253 0.601562 12.6714 1.13746 13.5996C1.48853 14.2077 1.99349 14.7126 2.60156 15.0637C3.52977 15.5996 4.77592 15.5996 7.26823 15.5996H8.93489C11.4272 15.5996 12.6734 15.5996 13.6016 15.0637C14.2096 14.7126 14.7146 14.2077 15.0657 13.5996C15.6016 12.6714 15.6016 11.4253 15.6016 8.93294M0.601562 8.93294C0.601562 8.00363 0.601562 7.53898 0.678421 7.15258C0.994048 5.56582 2.23444 4.32543 3.8212 4.0098C4.2076 3.93294 4.67225 3.93294 5.60156 3.93294H10.6016C11.5309 3.93294 11.9955 3.93294 12.3819 4.0098C13.9687 4.32543 15.2091 5.56582 15.5247 7.15258C15.6016 7.53898 15.6016 8.00363 15.6016 8.93294M6.4349 6.43294H9.76823M4.76823 3.93294C4.76823 2.09199 6.26061 0.599609 8.10156 0.599609C9.94251 0.599609 11.4349 2.09199 11.4349 3.93294" stroke="#5E6A7A" stroke-width="1.2" stroke-linecap="round" stroke-linejoin="round"/>
</svg>
