<svg width="17" height="17" viewBox="0 0 17 17" fill="none" xmlns="http://www.w3.org/2000/svg">
<path d="M15.6016 8.95573L13.9349 7.6224L13.6571 7.40017L10.3505 4.75485C9.39609 3.99135 8.9189 3.6096 8.37064 3.53516C8.19207 3.51092 8.01105 3.51092 7.83248 3.53516C7.28422 3.6096 6.80703 3.99135 5.85266 4.75485L2.54601 7.40017L2.26823 7.6224L0.601562 8.95573M0.601562 6.03906L5.85266 1.83818C6.80703 1.07469 7.28422 0.692935 7.83248 0.618496C8.01105 0.594251 8.19207 0.594251 8.37064 0.618496C8.9189 0.692935 9.39609 1.07468 10.3505 1.83818L15.6016 6.03906M2.26823 7.6224V10.0557C2.26823 12.3056 2.26823 13.4305 2.84118 14.2191C3.02622 14.4738 3.25019 14.6977 3.50487 14.8828C4.29347 15.4557 5.41839 15.4557 7.66823 15.4557H8.5349C10.7847 15.4557 11.9097 15.4557 12.6983 14.8828C12.9529 14.6977 13.1769 14.4738 13.3619 14.2191C13.9349 13.4305 13.9349 12.3056 13.9349 10.0557V7.6224M10.6016 12.1224H5.60156" stroke="#5E6A7A" stroke-width="1.2" stroke-linecap="round" stroke-linejoin="round"/>
</svg>
