<svg width="16" height="17" viewBox="0 0 16 17" fill="none" xmlns="http://www.w3.org/2000/svg">
<path d="M9.59881 8.33984C9.59881 9.46368 8.68759 10.3747 7.56354 10.3747C6.43949 10.3747 5.52827 9.46368 5.52827 8.33984C5.52827 7.21601 6.43949 6.30496 7.56354 6.30496C8.68759 6.30496 9.59881 7.21601 9.59881 8.33984Z" stroke="#5E6A7A" stroke-width="1.2" stroke-linejoin="round"/>
<path d="M5.19845 2.25028C6.00086 1.34768 6.40206 0.896375 6.87278 0.723134C7.31867 0.559034 7.80842 0.559034 8.25431 0.723134C8.72503 0.896375 9.12623 1.34768 9.92863 2.25028C10.1827 2.5361 10.3098 2.679 10.4579 2.79337C10.5995 2.90271 10.7551 2.99256 10.9206 3.06051C11.0938 3.13157 11.2811 3.17013 11.6558 3.24724C12.8382 3.49058 13.4294 3.61225 13.8146 3.93282C14.1804 4.2372 14.4257 4.66202 14.5064 5.13098C14.5914 5.6249 14.4012 6.19754 14.0208 7.3428C13.9004 7.7056 13.8401 7.88699 13.8151 8.07237C13.7911 8.24988 13.7911 8.42981 13.8151 8.60732C13.8401 8.79269 13.9004 8.97409 14.0208 9.33688C14.4012 10.4822 14.5914 11.0548 14.5064 11.5487C14.4257 12.0177 14.1804 12.4425 13.8146 12.7469C13.4294 13.0674 12.8382 13.1891 11.6558 13.4325C11.2811 13.5096 11.0938 13.5481 10.9206 13.6192C10.7551 13.6871 10.5995 13.777 10.4579 13.8863C10.3098 14.0007 10.1827 14.1436 9.92863 14.4294C9.12623 15.332 8.72503 15.7833 8.25431 15.9566C7.80842 16.1207 7.31867 16.1207 6.87278 15.9566C6.40206 15.7833 6.00085 15.332 5.19845 14.4294C4.94437 14.1436 4.81732 14.0007 4.66921 13.8863C4.5276 13.777 4.37195 13.6871 4.20644 13.6192C4.03333 13.5481 3.84599 13.5096 3.47131 13.4325C2.2889 13.1891 1.69769 13.0674 1.31244 12.7469C0.946667 12.4425 0.701402 12.0177 0.620701 11.5487C0.535705 11.0548 0.725884 10.4821 1.10624 9.33688C1.22673 8.97409 1.28698 8.79269 1.31199 8.60732C1.33595 8.42981 1.33595 8.24988 1.31199 8.07237C1.28698 7.88699 1.22673 7.7056 1.10624 7.3428C0.725884 6.19754 0.535705 5.6249 0.620701 5.13098C0.701402 4.66202 0.946668 4.2372 1.31244 3.93282C1.69769 3.61225 2.2889 3.49058 3.47131 3.24724C3.84599 3.17013 4.03333 3.13157 4.20644 3.06051C4.37195 2.99256 4.5276 2.90271 4.66921 2.79337C4.81732 2.679 4.94437 2.5361 5.19845 2.25028Z" stroke="#5E6A7A" stroke-width="1.2" stroke-linejoin="round"/>
</svg>
