<svg width="17" height="17" viewBox="0 0 17 17" fill="none" xmlns="http://www.w3.org/2000/svg">
<path d="M6.4349 14.3496C6.4349 15.04 6.99454 15.5996 7.6849 15.5996H8.9349C9.62525 15.5996 10.1849 15.04 10.1849 14.3496C10.1849 13.6593 9.62525 13.0996 8.9349 13.0996H7.6849C6.99454 13.0996 6.4349 13.6593 6.4349 14.3496Z" fill="#5E6A7A"/>
<path d="M0.601562 8.09961C0.601562 7.81794 0.61709 7.53989 0.647336 7.26628M0.601562 8.09961V10.5996C0.601562 11.5201 1.34775 12.2663 2.26823 12.2663M0.601562 8.09961L0.643229 7.26628H0.647336M0.647336 7.26628C1.06187 3.51632 4.2411 0.599609 8.10156 0.599609C11.962 0.599609 15.1413 3.51632 15.5558 7.26628M0.647336 7.26628H2.26823C3.64894 7.26628 4.76823 8.38556 4.76823 9.76628C4.76823 11.147 3.64894 12.2663 2.26823 12.2663M15.5558 7.26628C15.586 7.53989 15.6016 7.81794 15.6016 8.09961M15.5558 7.26628H13.9349C12.5542 7.26628 11.4349 8.38556 11.4349 9.76628C11.4349 11.147 12.5542 12.2663 13.9349 12.2663C14.8554 12.2663 15.6016 11.5201 15.6016 10.5996V8.09961M15.5558 7.26628H15.5599L15.6016 8.09961M2.26823 12.2663C2.26823 12.3436 2.26823 12.3823 2.2693 12.415C2.30378 13.4683 3.14957 14.3141 4.20279 14.3485C4.2355 14.3496 4.27419 14.3496 4.35156 14.3496H6.4349M6.4349 14.3496C6.4349 15.04 6.99454 15.5996 7.6849 15.5996H8.9349C9.62525 15.5996 10.1849 15.04 10.1849 14.3496C10.1849 13.6593 9.62525 13.0996 8.9349 13.0996H7.6849C6.99454 13.0996 6.4349 13.6593 6.4349 14.3496Z" stroke="#5E6A7A" stroke-width="1.2" stroke-linejoin="round"/>
</svg>
