<svg width="17" height="15" viewBox="0 0 17 15" fill="none" xmlns="http://www.w3.org/2000/svg">
<path d="M10.5508 5.96647H12.2174M13.0508 3.0498C13.0508 1.66909 11.9315 0.549805 10.5508 0.549805H6.55078C4.05096 0.549805 2.80105 0.549805 1.92483 1.18641C1.64185 1.39201 1.39299 1.64087 1.18739 1.92385C0.550781 2.80007 0.550781 4.04998 0.550781 6.5498V9.71647M5.96745 13.8831H10.1341C12.0796 13.8831 13.0524 13.8831 13.7888 13.4895C14.3702 13.1788 14.8464 12.7026 15.1572 12.1211C15.5508 11.3848 15.5508 10.412 15.5508 8.46647C15.5508 6.52094 15.5508 5.54818 15.1572 4.81181C14.8464 4.23039 14.3702 3.75418 13.7888 3.4434C13.0524 3.0498 12.0796 3.0498 10.1341 3.0498H5.96745C4.02192 3.0498 3.04916 3.0498 2.31279 3.4434C1.73137 3.75418 1.25516 4.23039 0.944377 4.81181C0.550781 5.54818 0.550781 6.52094 0.550781 8.46647C0.550781 10.412 0.550781 11.3848 0.944377 12.1211C1.25516 12.7026 1.73137 13.1788 2.31279 13.4895C3.04916 13.8831 4.02192 13.8831 5.96745 13.8831Z" stroke="#5E6A7A" stroke-width="1.1" stroke-linecap="round" stroke-linejoin="round"/>
</svg>
