<?xml version="1.0" encoding="UTF-8"?>
<svg id="Layer_2" data-name="Layer 2" xmlns="http://www.w3.org/2000/svg" viewBox="0 0 1300 190.53">
  <defs>
    <style>
      .cls-1 {
        fill: #fffbde;
      }
    </style>
  </defs>
  <g id="Layer_1-2" data-name="Layer 1">
    <g>
      <path class="cls-1" d="M302.36,60.81c-15.1,0-29.46,3.29-44.58,10.08l5.04,15.09c11.6-5.02,26.22-8.8,38.55-8.8,24.18,0,41.3,9.32,41.3,31.48v10.58c-13.59-7.55-28.94-10.31-43.83-10.31-27.44,0-50.36,13.86-50.36,40.55s22.16,39.79,48.11,39.79c20.4,0,39.78-9.83,48.09-26.71h.5c-.5,8.07-.5,16.12-.5,24.68h16.63v-78.58c0-34.5-24.68-47.85-58.94-47.85ZM299.59,173.39c-17.13,0-32.48-8.56-32.48-24.43s15.11-24.68,34.76-24.68c13.34,0,29.97,4.29,41.31,11.09-1.76,23.67-21.15,38.02-43.59,38.02Z"/>
      <path class="cls-1" d="M501.36,27.89v28.39c0,11.09.49,21.92,1.51,31.99h-.52c-6.81-14.85-24.92-27.95-49.11-27.95-35.77,0-61.71,26.18-61.71,64.97s25.94,64.49,62.21,64.49c24.2,0,42.82-13.35,48.38-28.21h.5c-.26,9.3-.26,15.37-.26,25.68h17.62V27.89h-18.62ZM455.26,172.64c-26.2,0-45.08-19.15-45.08-47.85s18.87-47.36,45.33-47.36,45.84,19.15,45.84,47.85-19.15,47.36-46.1,47.36Z"/>
      <path class="cls-1" d="M603.84,115.97c-21.65-3.53-30.71-9.82-30.71-20.4,0-11.6,11.32-18.88,29.72-18.88,12.84,0,26.42,4.02,38.51,10.83l6.56-14.61c-12.86-7.83-28.21-12.1-44.84-12.1-28.71,0-48.35,14.36-48.35,35.26,0,19.15,15.35,30.74,47.09,35.52,24.18,3.78,32.99,9.32,32.99,21.4s-12.33,21.16-30.48,21.16c-16.12,0-31.48-5.53-45.58-14.6l-8.31,14.34c15.86,10.59,33.74,16.64,53.65,16.64,29.46,0,49.37-15.11,49.37-37.28s-13.36-31.48-49.64-37.27Z"/>
      <rect class="cls-1" x="781.16" y="62.83" width="28.2" height="124.41"/>
      <polygon class="cls-1" points="809.37 27.89 809.37 47.89 781.16 54.32 781.16 27.89 809.37 27.89"/>
      <path class="cls-1" d="M722.47,47.1v15.73h37.78v23.92h-37.78v100.49h-28.2v-100.49h-22.93v-23.92h22.93v-15.22c0-31.74,20.15-47.61,45.33-47.61,7.41,0,14.39,1.08,20.65,3.23v24.47c-5.8-3.02-11.08-4.03-17.63-4.03-12.34,0-20.15,7.06-20.15,23.43Z"/>
      <path class="cls-1" d="M1015.89,62.84V27.89h-27.96v34.95h-23.42v23.41h87.15v-23.41h-35.77ZM1048.9,160.56c-5.04,2.51-10.6,4.03-15.64,4.03-11.84,0-17.37-7.07-17.37-20.65v-57.69l-27.96,27.97v30.46c0,28.97,14.61,44.34,40.8,44.34,10.32,0,18.39-1.78,27.96-6.05l-7.79-22.41Z"/>
      <path class="cls-1" d="M1193.95,123.78c0-42.55-24.93-63.72-58.43-63.72-38.28,0-65.74,26.19-65.74,64.98s26.43,64.99,65.22,64.99c18.65,0,40.05-5.79,52.89-19.4l-13.34-18.63c-11.61,10.07-26.7,13.85-38.53,13.85-20.66,0-36.02-11.85-37.79-30.73h95.22c.24-3.53.49-7.32.49-11.34ZM1098.51,113.7c3.52-19.88,17.62-29.46,36-29.46s31.49,9.81,32.74,29.46h-68.74Z"/>
      <path class="cls-1" d="M1283.11,60.32c-18.89,0-32.24,10.58-37.27,22.92h-.49c.49-7.31.75-13.86.75-20.4h-26.19v124.4h28.21v-64.45c0-22.68,12.84-37.04,32.23-37.04,4.54,0,8.56.5,12.34,2.02l7.32-24.92c-5.04-1.78-11.1-2.52-16.89-2.52Z"/>
      <g>
        <polygon class="cls-1" points="180.36 8.92 55.41 64.33 0 8.92 180.36 8.92"/>
        <polygon class="cls-1" points="180.36 8.92 180.36 189.27 124.95 133.86 180.36 8.92"/>
        <polygon class="cls-1" points="180.36 8.92 72.19 189.27 0 189.27 0 117.09 180.36 8.92"/>
      </g>
      <g>
        <polygon class="cls-1" points="885.91 155.74 863.4 187.25 829.64 187.25 869.03 132.13 885.91 155.74"/>
        <polygon class="cls-1" points="977.3 27.89 973.15 33.69 890.99 148.65 874.11 125.04 846.75 86.76 880.51 86.76 890.99 101.43 939.39 33.69 943.54 27.89 977.3 27.89"/>
        <polygon class="cls-1" points="952.31 187.25 918.56 187.25 896.05 155.74 912.93 132.13 952.31 187.25"/>
      </g>
    </g>
  </g>
</svg>